{"title":"iZombie S02E01 720p HDTV X264-DIMENSION","uid":12528707,"size":873331284,"categoryP":"video","categoryS":"tv_shows","magnet":"?xt=urn:btih:396de2b5486a2c5953e8127a9ffdc23ee7b08c91&amp;dn=iZombie+S02E01+720p+HDTV+X264-DIMENSION&amp;tr=udp%3A%2F%2Ftracker.leechers-paradise.org%3A6969&amp;tr=udp%3A%2F%2Fzer0day.ch%3A1337&amp;tr=udp%3A%2F%2Fopen.demonii.com%3A1337&amp;tr=udp%3A%2F%2Ftracker.coppersurfer.tk%3A6969&amp;tr=udp%3A%2F%2Fexodus.desync.com%3A6969","seeders":0,"leechers":1,"uploader":"tykoon123","files":4,"time":1444190982,"description":"Aired 06.10.2015 \r\n\r\nInfo: \r\nFormat : Matroska \r\nFormat version : Version 4 / Version 2 \r\nFile size : 781 MiB \r\nDuration : 42mn 27s \r\nOverall bit rate : 2 571 Kbps \r\nEncoded date : UTC 2015-10-06 17:22:58 \r\nWriting application : mkvmerge v8.4.0 ('A better way to fly') 64bit \r\nWriting library : libebml v1.3.1 + libmatroska v1.4.2 \r\nDURATION : 00:42:27.168000000 \r\nNUMBER_OF_FRAMES : 79599 \r\nNUMBER_OF_BYTES : 122264064 \r\n_STATISTICS_WRITING_APP : mkvmerge v8.4.0 ('A better way to fly') 64bit \r\n_STATISTICS_WRITING_DATE_UTC : 2015-10-06 17:22:58 \r\n_STATISTICS_TAGS : BPS DURATION NUMBER_OF_FRAMES NUMBER_OF_BYTES \r\n\r\nVideo \r\nID : 1 \r\nFormat : AVC \r\nFormat/Info : Advanced Video Codec \r\nFormat profile :    \r\nFormat settings, CABAC : Yes \r\nFormat settings, ReFrames : 9 frames \r\nCodec ID : V_MPEG4/ISO/AVC \r\nDuration : 42mn 27s \r\nBit rate : 2 136 Kbps \r\nWidth : 1 280 pixels \r\nHeight : 720 pixels \r\nDisplay aspect ratio : 16:9 \r\nFrame rate mode : Constant \r\nFrame rate : 23.976 fps \r\nColor space : YUV \r\nChroma subsampling : 4:2:0 \r\nBit depth : 8 bits \r\nScan type : Progressive \r\nBits/(Pixel*Frame) : 0.097 \r\nStream size : 649 MiB (83%) \r\nWriting library : x264 core 148 r2597 e86f3a1 \r\n\r\n\r\nLanguage : English \r\nDefault : Yes \r\nForced : No \r\nDURATION : 00:42:27.337000000 \r\nNUMBER_OF_FRAMES : 61075 \r\nNUMBER_OF_BYTES : 695766965 \r\n_STATISTICS_WRITING_APP : mkvmerge v8.4.0 ('A better way to fly') 64bit \r\n_STATISTICS_WRITING_DATE_UTC : 2015-10-06 17:22:58 \r\n_STATISTICS_TAGS : BPS DURATION NUMBER_OF_FRAMES NUMBER_OF_BYTES \r\nMatrix coefficients : BT.709 \r\n\r\nAudio \r\nID : 2 \r\nFormat : AC-3 \r\nFormat/Info : Audio Coding 3 \r\nMode extension : CM (complete main) \r\nFormat settings, Endianness : Big \r\nCodec ID : A_AC3 \r\nDuration : 42mn 27s \r\nBit rate mode : Constant \r\nBit rate : 384 Kbps \r\nChannel(s) : 6 channels \r\nChannel positions : Front: L C R, Side: L R, LFE \r\nSampling rate : 48.0 KHz \r\nBit depth : 16 bits \r\nCompression mode : Lossy \r\nStream size : 117 MiB (15%) \r\nDefault : Yes \r\nForced : No \r\n\r\nScreens:  \nhttp://www.imgpuppy.com/image/5qZv  \nhttp://www.imgpuppy.com/image/5wlV  \nhttp://www.imgpuppy.com/image/5EKr  \nhttp://www.imgpuppy.com/image/5hWO  \nhttp://www.imgpuppy.com/image/5HYU","torrent":{"xt":"urn:btih:396de2b5486a2c5953e8127a9ffdc23ee7b08c91","amp;dn":"iZombie+S02E01+720p+HDTV+X264-DIMENSION","amp;tr":["udp%3A%2F%2Ftracker.leechers-paradise.org%3A6969","udp%3A%2F%2Fzer0day.ch%3A1337","udp%3A%2F%2Fopen.demonii.com%3A1337","udp%3A%2F%2Ftracker.coppersurfer.tk%3A6969","udp%3A%2F%2Fexodus.desync.com%3A6969"],"infoHash":"396de2b5486a2c5953e8127a9ffdc23ee7b08c91","infoHashBuffer":{"type":"Buffer","data":[57,109,226,181,72,106,44,89,83,232,18,122,159,253,194,62,231,176,140,145]},"announce":[],"urlList":[]}}